<?xml version="1.0" encoding="UTF-8" standalone="no"?>
<!-- Created with Inkscape (http://www.inkscape.org/) -->

<svg
   xmlns:dc="http://purl.org/dc/elements/1.1/"
   xmlns:cc="http://creativecommons.org/ns#"
   xmlns:rdf="http://www.w3.org/1999/02/22-rdf-syntax-ns#"
   xmlns:svg="http://www.w3.org/2000/svg"
   xmlns="http://www.w3.org/2000/svg"
   xmlns:sodipodi="http://sodipodi.sourceforge.net/DTD/sodipodi-0.dtd"
   xmlns:inkscape="http://www.inkscape.org/namespaces/inkscape"
   width="73.354309mm"
   height="73.333786mm"
   viewBox="0 0 259.91684 259.84412"
   id="svg2"
   version="1.1"
   inkscape:version="0.91 r13725"
   sodipodi:docname="ext_icon.svg">
  <defs
     id="defs4" />
  <sodipodi:namedview
     id="base"
     pagecolor="#ffffff"
     bordercolor="#666666"
     borderopacity="1.0"
     inkscape:pageopacity="0.0"
     inkscape:pageshadow="2"
     inkscape:zoom="0.35"
     inkscape:cx="-178.28571"
     inkscape:cy="330.41683"
     inkscape:document-units="px"
     inkscape:current-layer="layer1"
     showgrid="false"
     fit-margin-top="0"
     fit-margin-left="0"
     fit-margin-right="0"
     fit-margin-bottom="0"
     inkscape:window-width="1920"
     inkscape:window-height="1054"
     inkscape:window-x="1920"
     inkscape:window-y="0"
     inkscape:window-maximized="1" />
  <metadata
     id="metadata7">
    <rdf:RDF>
      <cc:Work
         rdf:about="">
        <dc:format>image/svg+xml</dc:format>
        <dc:type
           rdf:resource="http://purl.org/dc/dcmitype/StillImage" />
        <dc:title></dc:title>
      </cc:Work>
    </rdf:RDF>
  </metadata>
  <g
     inkscape:label="Ebene 1"
     inkscape:groupmode="layer"
     id="layer1"
     transform="translate(-64.714283,-37.220615)">
    <path
       style="fill:#000000"
       d="m 151.36927,295.31917 c -1.4524,-1.60488 -1.65499,-5.07467 -1.65499,-28.34501 0,-24.41854 0.14467,-26.6472 1.82874,-28.17126 2.37688,-2.15105 4.46269,-2.09544 6.51627,0.17375 1.4524,1.60488 1.65499,5.07467 1.65499,28.34501 0,24.41854 -0.14467,26.6472 -1.82874,28.17126 -2.37688,2.15105 -4.46269,2.09544 -6.51627,-0.17375 z m 89.84501,-2.52031 C 231.48901,289.586 227.99681,286.69547 199.0251,257.87849 182.97105,241.91018 168.43059,226.8883 166.71297,224.49655 l -3.12296,-4.34864 3.31213,-0.0543 c 1.82168,-0.0299 10.16686,-0.6039 18.54486,-1.27563 l 15.23272,-1.22134 21.76728,21.84237 c 11.972,12.01331 23.05495,22.52484 24.62877,23.35896 3.65033,1.93468 10.58828,1.94745 14.27702,0.0263 1.57382,-0.81968 9.04899,-7.78449 16.61149,-15.47735 13.94462,-14.18501 14.42956,-14.94125 13.91443,-21.69899 -0.41518,-5.44658 -2.72567,-8.31546 -23.8827,-29.65465 l -22.58634,-22.7808 0.68281,-11.24226 c 0.37555,-6.18324 0.95856,-14.50442 1.29559,-18.49151 l 0.61279,-7.24925 4.30629,3.09255 c 2.36846,1.7009 17.14944,16.02629 32.84662,31.83419 26.81601,27.00517 28.7675,29.21744 32.30042,36.61669 3.67531,7.69749 3.76009,8.13549 3.76009,19.4269 0,11.29662 -0.0814,11.71644 -3.68302,19 -3.20312,6.47764 -5.8879,9.62865 -20.60447,24.18258 -14.39553,14.23643 -17.95077,17.21869 -23.81698,19.9785 -6.21857,2.92558 -7.92636,3.26936 -17.39553,3.50176 -6.69111,0.16422 -11.95101,-0.22166 -14.5,-1.06375 z M 86.250753,275.1882 c -1.12594,-1.24414 -1.56209,-2.79597 -1.19448,-4.25 0.84401,-3.33842 41.773557,-43.79029 44.307397,-43.79029 2.29064,0 5.35061,2.90937 5.35061,5.08726 0,1.96559 -43.129417,44.91274 -45.103347,44.91274 -0.87267,0 -2.38475,-0.88187 -3.36018,-1.95971 z m -19.96504,-64.61172 c -0.86429,-0.86428 -1.57143,-2.40714 -1.57143,-3.42857 0,-1.02143 0.70714,-2.56429 1.57143,-3.42857 1.35031,-1.35032 5.33872,-1.57143 28.34501,-1.57143 24.667817,0 26.903747,0.14383 28.428567,1.82874 2.15105,2.37688 2.09544,4.46269 -0.17375,6.51627 -1.60518,1.45267 -5.08047,1.65499 -28.428567,1.65499 -22.84833,0 -26.82146,-0.22163 -28.17126,-1.57143 z M 108.52784,166.27365 C 86.820063,144.73664 75.019473,132.2873 73.275783,129.08358 c -7.67766,-14.10641 -7.48312,-32.420626 0.47733,-44.935666 1.57428,-2.475 10.20017,-11.78495 19.16864,-20.68878 13.884627,-13.78454 17.344867,-16.68053 23.299417,-19.5 6.70718,-3.17583 7.48376,-3.31122 18.99311,-3.31122 11.50751,0 12.28678,0.13579 18.9877,3.30869 6.31629,2.99078 9.80774,6.11349 36.33765,32.5 16.14248,16.05522 30.68214,31.103806 32.31035,33.441306 l 2.96038,4.25 -3.79804,0.0881 c -2.08892,0.0485 -10.32304,0.63644 -18.29804,1.30655 l -14.5,1.2184 -23,-22.714126 c -25.19455,-24.8814 -26.78791,-25.96509 -34.96847,-23.78297 -3.21159,0.85668 -6.93438,3.94967 -18.30439,15.20776 -22.414467,22.193826 -22.666467,20.669346 8.62017,52.149476 l 22.88527,23.02681 -1.33644,16.5 c -0.73505,9.075 -1.47486,17.625 -1.64403,19 -0.2694,2.18964 -4.35851,-1.51906 -32.93855,-29.87426 z m 157.75787,-35.69717 c -2.08791,-2.08791 -1.98707,-4.74245 0.25731,-6.77358 1.60488,-1.4524 5.07467,-1.65499 28.34501,-1.65499 24.41854,0 26.6472,0.14467 28.17126,1.82874 2.15105,2.37688 2.09544,4.46269 -0.17375,6.51627 -1.60518,1.45267 -5.08047,1.65499 -28.42857,1.65499 -22.84833,0 -26.82146,-0.22163 -28.17126,-1.57143 z M 256.25075,105.1882 c -1.12594,-1.24414 -1.56209,-2.79597 -1.19448,-4.25 0.86794,-3.433066 41.77874,-43.790286 44.39096,-43.790286 2.54805,0 5.26705,2.49336 5.26705,4.82995 0,2.13928 -42.96723,45.170046 -45.10335,45.170046 -0.87267,0 -2.38475,-0.88187 -3.36018,-1.95971 z m -24.96504,-9.611716 c -2.36028,-2.36028 -2.36028,-54.49687 0,-56.85714 2.08791,-2.08791 4.74245,-1.98707 6.77358,0.25731 1.4524,1.60488 1.65499,5.07467 1.65499,28.34501 0,24.41854 -0.14467,26.6472 -1.82874,28.17126 -2.29668,2.07847 -4.57607,2.10733 -6.59983,0.0836 z"
       id="path4201"
       inkscape:connector-curvature="0" />
  </g>
</svg>
